<?xml version="1.0" encoding="utf-8" standalone="no"?>
<!DOCTYPE svg PUBLIC "-//W3C//DTD SVG 1.1//EN"
  "http://www.w3.org/Graphics/SVG/1.1/DTD/svg11.dtd">
<svg xmlns:xlink="http://www.w3.org/1999/xlink" width="720pt" height="576pt" viewBox="0 0 720 576" xmlns="http://www.w3.org/2000/svg" version="1.1">
 <metadata>
  <rdf:RDF xmlns:dc="http://purl.org/dc/elements/1.1/" xmlns:cc="http://creativecommons.org/ns#" xmlns:rdf="http://www.w3.org/1999/02/22-rdf-syntax-ns#">
   <cc:Work>
    <dc:type rdf:resource="http://purl.org/dc/dcmitype/StillImage"/>
    <dc:date>2025-11-12T15:18:52.251692</dc:date>
    <dc:format>image/svg+xml</dc:format>
    <dc:creator>
     <cc:Agent>
      <dc:title>Matplotlib v3.10.3, https://matplotlib.org/</dc:title>
     </cc:Agent>
    </dc:creator>
   </cc:Work>
  </rdf:RDF>
 </metadata>
 <defs>
  <style type="text/css">*{stroke-linejoin: round; stroke-linecap: butt}</style>
 </defs>
 <g id="figure_1">
  <g id="patch_1">
   <path d="M 0 576
L 720 576
L 720 0
L 0 0
z
" style="fill: #ffffff"/>
  </g>
  <g id="axes_1">
   <g id="patch_2">
    <path d="M 57.6 295.2
L 691.2 295.2
L 691.2 43.2
L 57.6 43.2
z
" style="fill: #ffffff"/>
   </g>
   <g id="matplotlib.axis_1">
    <g id="xtick_1">
     <g id="line2d_1">
      <defs>
       <path id="m4b4937c8e3" d="M 0 0
L 0 3.5
" style="stroke: #000000; stroke-width: 0.8"/>
      </defs>
      <g>
       <use xlink:href="#m4b4937c8e3" x="104.391803" y="295.2" style="stroke: #000000; stroke-width: 0.8"/>
      </g>
     </g>
    </g>
    <g id="xtick_2">
     <g id="line2d_2">
      <g>
       <use xlink:href="#m4b4937c8e3" x="299.357647" y="295.2" style="stroke: #000000; stroke-width: 0.8"/>
      </g>
     </g>
    </g>
    <g id="xtick_3">
     <g id="line2d_3">
      <g>
       <use xlink:href="#m4b4937c8e3" x="494.323491" y="295.2" style="stroke: #000000; stroke-width: 0.8"/>
      </g>
     </g>
    </g>
    <g id="xtick_4">
     <g id="line2d_4">
      <g>
       <use xlink:href="#m4b4937c8e3" x="689.289335" y="295.2" style="stroke: #000000; stroke-width: 0.8"/>
      </g>
     </g>
    </g>
   </g>
   <g id="matplotlib.axis_2">
    <g id="ytick_1">
     <g id="line2d_5">
      <defs>
       <path id="m7bed795e60" d="M 0 0
L -3.5 0
" style="stroke: #000000; stroke-width: 0.8"/>
      </defs>
      <g>
       <use xlink:href="#m7bed795e60" x="57.6" y="254.396062" style="stroke: #000000; stroke-width: 0.8"/>
      </g>
     </g>
     <g id="text_1">
      <!-- −3.0 -->
      <g transform="translate(30.372417 257.560812) scale(0.0833 -0.0833)">
       <defs>
        <path id="DejaVuSans-2212" d="M 678 2272
L 4684 2272
L 4684 1741
L 678 1741
L 678 2272
z
" transform="scale(0.015625)"/>
        <path id="DejaVuSans-33" d="M 2597 2516
Q 3050 2419 3304 2112
Q 3559 1806 3559 1356
Q 3559 666 3084 287
Q 2609 -91 1734 -91
Q 1441 -91 1130 -33
Q 819 25 488 141
L 488 750
Q 750 597 1062 519
Q 1375 441 1716 441
Q 2309 441 2620 675
Q 2931 909 2931 1356
Q 2931 1769 2642 2001
Q 2353 2234 1838 2234
L 1294 2234
L 1294 2753
L 1863 2753
Q 2328 2753 2575 2939
Q 2822 3125 2822 3475
Q 2822 3834 2567 4026
Q 2313 4219 1838 4219
Q 1578 4219 1281 4162
Q 984 4106 628 3988
L 628 4550
Q 988 4650 1302 4700
Q 1616 4750 1894 4750
Q 2613 4750 3031 4423
Q 3450 4097 3450 3541
Q 3450 3153 3228 2886
Q 3006 2619 2597 2516
z
" transform="scale(0.015625)"/>
        <path id="DejaVuSans-2e" d="M 684 794
L 1344 794
L 1344 0
L 684 0
L 684 794
z
" transform="scale(0.015625)"/>
        <path id="DejaVuSans-30" d="M 2034 4250
Q 1547 4250 1301 3770
Q 1056 3291 1056 2328
Q 1056 1369 1301 889
Q 1547 409 2034 409
Q 2525 409 2770 889
Q 3016 1369 3016 2328
Q 3016 3291 2770 3770
Q 2525 4250 2034 4250
z
M 2034 4750
Q 2819 4750 3233 4129
Q 3647 3509 3647 2328
Q 3647 1150 3233 529
Q 2819 -91 2034 -91
Q 1250 -91 836 529
Q 422 1150 422 2328
Q 422 3509 836 4129
Q 1250 4750 2034 4750
z
" transform="scale(0.015625)"/>
       </defs>
       <use xlink:href="#DejaVuSans-2212"/>
       <use xlink:href="#DejaVuSans-33" transform="translate(83.789062 0)"/>
       <use xlink:href="#DejaVuSans-2e" transform="translate(147.412109 0)"/>
       <use xlink:href="#DejaVuSans-30" transform="translate(179.199219 0)"/>
      </g>
     </g>
    </g>
    <g id="ytick_2">
     <g id="line2d_6">
      <g>
       <use xlink:href="#m7bed795e60" x="57.6" y="211.576031" style="stroke: #000000; stroke-width: 0.8"/>
      </g>
     </g>
     <g id="text_2">
      <!-- −1.5 -->
      <g transform="translate(30.372417 214.74078) scale(0.0833 -0.0833)">
       <defs>
        <path id="DejaVuSans-31" d="M 794 531
L 1825 531
L 1825 4091
L 703 3866
L 703 4441
L 1819 4666
L 2450 4666
L 2450 531
L 3481 531
L 3481 0
L 794 0
L 794 531
z
" transform="scale(0.015625)"/>
        <path id="DejaVuSans-35" d="M 691 4666
L 3169 4666
L 3169 4134
L 1269 4134
L 1269 2991
Q 1406 3038 1543 3061
Q 1681 3084 1819 3084
Q 2600 3084 3056 2656
Q 3513 2228 3513 1497
Q 3513 744 3044 326
Q 2575 -91 1722 -91
Q 1428 -91 1123 -41
Q 819 9 494 109
L 494 744
Q 775 591 1075 516
Q 1375 441 1709 441
Q 2250 441 2565 725
Q 2881 1009 2881 1497
Q 2881 1984 2565 2268
Q 2250 2553 1709 2553
Q 1456 2553 1204 2497
Q 953 2441 691 2322
L 691 4666
z
" transform="scale(0.015625)"/>
       </defs>
       <use xlink:href="#DejaVuSans-2212"/>
       <use xlink:href="#DejaVuSans-31" transform="translate(83.789062 0)"/>
       <use xlink:href="#DejaVuSans-2e" transform="translate(147.412109 0)"/>
       <use xlink:href="#DejaVuSans-35" transform="translate(179.199219 0)"/>
      </g>
     </g>
    </g>
    <g id="ytick_3">
     <g id="line2d_7">
      <g>
       <use xlink:href="#m7bed795e60" x="57.6" y="168.755999" style="stroke: #000000; stroke-width: 0.8"/>
      </g>
     </g>
     <g id="text_3">
      <!-- 0.0 -->
      <g transform="translate(37.352697 171.920748) scale(0.0833 -0.0833)">
       <use xlink:href="#DejaVuSans-30"/>
       <use xlink:href="#DejaVuSans-2e" transform="translate(63.623047 0)"/>
       <use xlink:href="#DejaVuSans-30" transform="translate(95.410156 0)"/>
      </g>
     </g>
    </g>
    <g id="ytick_4">
     <g id="line2d_8">
      <g>
       <use xlink:href="#m7bed795e60" x="57.6" y="125.935967" style="stroke: #000000; stroke-width: 0.8"/>
      </g>
     </g>
     <g id="text_4">
      <!-- 1.5 -->
      <g transform="translate(37.352697 129.100717) scale(0.0833 -0.0833)">
       <use xlink:href="#DejaVuSans-31"/>
       <use xlink:href="#DejaVuSans-2e" transform="translate(63.623047 0)"/>
       <use xlink:href="#DejaVuSans-35" transform="translate(95.410156 0)"/>
      </g>
     </g>
    </g>
    <g id="ytick_5">
     <g id="line2d_9">
      <g>
       <use xlink:href="#m7bed795e60" x="57.6" y="83.115936" style="stroke: #000000; stroke-width: 0.8"/>
      </g>
     </g>
     <g id="text_5">
      <!-- 3.0 -->
      <g transform="translate(37.352697 86.280685) scale(0.0833 -0.0833)">
       <use xlink:href="#DejaVuSans-33"/>
       <use xlink:href="#DejaVuSans-2e" transform="translate(63.623047 0)"/>
       <use xlink:href="#DejaVuSans-30" transform="translate(95.410156 0)"/>
      </g>
     </g>
    </g>
    <g id="text_6">
     <!-- 1e−15 -->
     <g transform="translate(57.6 40.2) scale(0.1 -0.1)">
      <defs>
       <path id="DejaVuSans-65" d="M 3597 1894
L 3597 1613
L 953 1613
Q 991 1019 1311 708
Q 1631 397 2203 397
Q 2534 397 2845 478
Q 3156 559 3463 722
L 3463 178
Q 3153 47 2828 -22
Q 2503 -91 2169 -91
Q 1331 -91 842 396
Q 353 884 353 1716
Q 353 2575 817 3079
Q 1281 3584 2069 3584
Q 2775 3584 3186 3129
Q 3597 2675 3597 1894
z
M 3022 2063
Q 3016 2534 2758 2815
Q 2500 3097 2075 3097
Q 1594 3097 1305 2825
Q 1016 2553 972 2059
L 3022 2063
z
" transform="scale(0.015625)"/>
      </defs>
      <use xlink:href="#DejaVuSans-31"/>
      <use xlink:href="#DejaVuSans-65" transform="translate(63.623047 0)"/>
      <use xlink:href="#DejaVuSans-2212" transform="translate(125.146484 0)"/>
      <use xlink:href="#DejaVuSans-31" transform="translate(208.935547 0)"/>
      <use xlink:href="#DejaVuSans-35" transform="translate(272.558594 0)"/>
     </g>
    </g>
   </g>
   <g id="line2d_10">
    <path d="M 57.6 168.755999
L 205.618069 168.865356
L 208.425577 169.111462
L 210.336242 169.493589
L 211.856976 170.01899
L 213.182744 170.710143
L 214.391532 171.588296
L 215.561327 172.710572
L 216.731122 174.136036
L 217.978903 176.007206
L 219.421651 178.585669
L 223.827879 186.80094
L 224.607742 187.610176
L 225.19264 187.909459
L 225.699551 187.932505
L 226.167469 187.698202
L 226.635387 187.220585
L 227.259277 186.135437
L 227.883168 184.494733
L 228.546052 182.095624
L 229.364909 178.151185
L 230.222758 172.837536
L 231.197588 165.377884
L 232.250403 155.829174
L 234.044089 137.349219
L 236.14972 116.238229
L 237.241529 107.657523
L 237.982399 103.413002
L 238.528303 101.34428
L 238.996221 100.285941
L 239.34716 100.024738
L 239.581119 100.06439
L 239.893064 100.40144
L 240.244003 101.296094
L 240.750914 103.309577
L 241.296818 106.572178
L 241.920709 111.594854
L 242.739566 120.111815
L 243.753388 133.392362
L 245.079156 153.792191
L 248.003643 200.14097
L 249.095452 213.926251
L 250.070281 223.238152
L 250.928131 228.872469
L 251.669001 231.674012
L 251.980947 232.14449
L 252.487858 232.501124
L 252.682824 232.327789
L 253.306714 231.116638
L 253.696646 229.805517
L 254.515502 225.776466
L 255.763284 216.937984
L 257.400997 202.884221
L 259.506628 184.75871
L 260.75441 175.679484
L 261.885211 169.072154
L 262.938027 164.349621
L 263.990843 160.986102
L 265.550569 157.831039
L 266.642378 156.782219
L 268.202105 156.178814
L 270.151763 156.297551
L 270.541695 156.321661
L 271.009613 156.442642
L 272.803299 157.092499
L 273.115244 157.303022
L 273.622155 157.451337
L 274.207053 157.85942
L 274.441012 157.919973
L 277.755431 161.307729
L 279.159185 163.295463
L 280.173008 164.826582
L 280.601932 165.505973
L 281.576762 167.008463
L 284.26729 170.711483
L 285.98299 172.322351
L 286.294935 172.52298
L 286.684867 172.77815
L 287.074798 172.864884
L 287.503723 173.067217
L 289.219423 172.892625
L 290.077272 172.35981
L 290.818143 171.721926
L 291.559013 170.908197
L 292.611828 169.440837
L 294.756453 165.486835
L 295.419337 164.052113
L 300.293483 152.271386
L 301.970189 148.891407
L 302.399114 148.131151
L 302.867032 147.535493
L 303.256964 147.114313
L 303.568909 146.769686
L 304.07582 146.64744
L 304.309779 146.547484
L 305.167629 147.012509
L 305.986485 148.164314
L 306.571383 149.560424
L 306.883328 150.541631
L 308.404062 157.31353
L 309.378891 163.57586
L 310.626672 173.801184
L 311.757474 184.776774
L 313.434181 202.580142
L 314.798941 216.659539
L 315.851757 226.092964
L 316.592627 231.414066
L 317.333497 235.482626
L 318.113361 237.954341
L 318.464299 238.187596
L 318.854231 238.357334
L 319.049197 238.064131
L 319.595101 236.667256
L 319.94604 235.228931
L 320.56993 231.48549
L 321.154828 226.69547
L 322.051671 217.269696
L 323.14348 202.5949
L 324.820186 175.936907
L 327.08179 139.369325
L 328.290578 123.062258
L 329.109434 114.369221
L 329.733325 109.211491
L 330.474195 104.757951
L 331.137079 102.484435
L 331.449025 102.048242
L 331.838956 101.884584
L 332.111908 102.07539
L 332.462847 102.705729
L 332.852779 103.833923
L 333.554656 106.940802
L 334.490492 113.104888
L 336.206191 128.339541
L 339.052692 156.878878
L 340.027522 165.349663
L 341.23631 174.132305
L 341.938187 178.129675
L 342.83503 182.098196
L 343.653886 184.738936
L 344.589722 186.533854
L 344.940661 186.851196
L 345.291599 187.152447
L 346.266429 186.967912
L 346.539381 186.769553
L 347.163272 186.118192
L 347.397231 185.747327
L 347.982128 184.74867
L 348.333067 184.126238
L 348.956957 182.832348
L 349.190916 182.338587
L 349.736821 181.037224
L 350.009773 180.419308
L 350.59467 178.978094
L 351.803459 176.17602
L 352.31037 175.043764
L 352.622315 174.345341
L 353.05124 173.478386
L 353.480165 172.618021
L 354.221035 171.341372
L 354.53298 170.776189
L 354.883919 170.247198
L 355.156871 169.934173
L 355.663782 169.154255
L 356.053714 168.735065
L 356.872571 167.939924
L 357.10653 167.699602
L 357.418475 167.384494
L 357.769414 167.268032
L 358.159345 166.907668
L 358.471291 166.851059
L 358.861222 166.646617
L 359.173168 166.560905
L 359.563099 166.457713
L 360.147997 166.410706
L 360.342963 166.401763
L 360.693901 166.269387
L 361.04484 166.429342
L 361.395778 166.345346
L 361.746717 166.498499
L 362.058662 166.489356
L 362.52658 166.677823
L 363.345437 167.019148
L 363.618389 167.187892
L 363.930334 167.161846
L 364.398252 167.611788
L 364.632211 167.591123
L 365.60704 168.289459
L 365.840999 168.454189
L 366.230931 168.869708
L 366.503883 168.881688
L 367.049788 169.416957
L 367.244754 169.481578
L 367.946631 170.170083
L 368.297569 170.417343
L 368.531528 170.610229
L 368.882467 170.980464
L 369.155419 171.093564
L 369.584344 171.503002
L 369.818303 171.593313
L 370.325214 172.048631
L 370.559173 172.240062
L 370.871118 172.454111
L 371.105077 172.540605
L 371.572995 172.913824
L 371.806954 173.006059
L 372.196886 173.307526
L 372.469838 173.34929
L 372.898763 173.556373
L 373.132722 173.69278
L 373.405674 173.873858
L 373.795606 173.870067
L 374.107551 174.045366
L 374.45849 173.970217
L 374.848421 174.101235
L 375.19936 174.096
L 375.511305 174.035529
L 375.745264 174.068421
L 375.979223 174.095432
L 376.447141 173.901902
L 376.6811 173.943889
L 377.149018 173.715372
L 377.382977 173.674902
L 377.811902 173.384608
L 378.084854 173.309967
L 379.059684 172.703258
L 379.293643 172.574992
L 379.683574 172.238858
L 379.956527 172.158199
L 380.502431 171.655463
L 380.775383 171.422844
L 381.165315 171.151804
L 382.023165 170.393132
L 382.296117 170.147186
L 382.608062 170.043907
L 383.19296 169.506519
L 386.195434 167.619143
L 386.546372 167.547968
L 386.936304 167.252275
L 387.326235 167.29724
L 387.989119 167.018597
L 388.457037 166.998983
L 388.768983 166.829912
L 389.197908 166.990136
L 389.509853 166.790115
L 390.016764 166.902823
L 390.406696 166.898129
L 391.459511 166.978152
L 391.732464 167.056517
L 392.083402 166.979467
L 392.473334 167.123801
L 392.785279 167.05823
L 393.214204 167.180495
L 393.565142 167.186065
L 394.383999 167.243356
L 394.695944 167.234108
L 395.046883 167.311399
L 395.397821 167.225994
L 395.74876 167.250491
L 396.060705 167.213055
L 396.372651 167.2682
L 396.879562 167.14147
L 397.698418 167.045772
L 398.08835 166.967779
L 398.400295 166.908239
L 398.985193 166.749801
L 399.297138 166.725488
L 399.57009 166.69662
L 399.960022 166.486929
L 400.349954 166.569221
L 400.778879 166.335469
L 401.28579 166.380875
L 401.870687 166.227987
L 402.221626 166.324265
L 402.689544 166.172991
L 403.079476 166.314244
L 403.664373 166.288243
L 404.405243 166.411315
L 404.600209 166.459818
L 405.068127 166.749555
L 405.380073 166.813378
L 406.354902 167.328735
L 406.627854 167.460976
L 407.134765 167.868551
L 407.602683 168.199579
L 408.616506 168.967929
L 408.928451 169.334404
L 409.27939 169.45271
L 409.747308 169.891705
L 410.059253 170.177958
L 410.64415 170.625629
L 410.956096 170.803
L 411.190055 170.986884
L 411.502 171.255678
L 411.813945 171.3116
L 412.24287 171.769827
L 412.554816 171.72834
L 413.178706 172.154006
L 413.529645 172.162629
L 413.724611 172.253936
L 414.075549 172.528567
L 414.426488 172.260984
L 414.465481 172.306302
L 414.816419 172.731282
L 415.323331 172.475398
L 415.674269 172.574067
L 416.025208 172.515432
L 416.337153 172.342568
L 416.727085 172.457323
L 417.078023 172.161884
L 417.389969 172.300653
L 417.857887 172.04214
L 418.052852 172.019131
L 418.481777 171.786755
L 418.676743 171.741483
L 419.066675 171.501868
L 419.300634 171.485538
L 419.729559 171.210408
L 419.963518 171.234404
L 420.470429 170.823594
L 420.665395 170.806612
L 421.172306 170.553023
L 421.445258 170.312827
L 421.679217 170.267379
L 421.874183 170.256542
L 422.381094 169.898228
L 422.57606 169.921154
L 423.121964 169.555661
L 423.31693 169.461201
L 423.628876 169.248652
L 423.901828 169.200111
L 424.369746 168.876183
L 424.603705 168.756845
L 424.91565 168.566849
L 425.188602 168.478997
L 425.578534 168.16739
L 425.812493 168.145215
L 426.436384 167.653138
L 426.670343 167.482465
L 427.411213 166.813027
L 427.840138 166.523416
L 428.191076 166.0545
L 428.542015 165.915553
L 429.204899 165.105471
L 429.672817 164.561392
L 430.101742 164.021908
L 430.335701 163.845969
L 431.037578 162.872096
L 431.232544 162.579361
L 431.700462 161.810299
L 432.012407 161.412972
L 432.675291 160.387775
L 432.948243 160.047067
L 433.533141 159.064473
L 433.7671 158.774661
L 434.313004 157.923068
L 434.624949 157.504662
L 435.170854 156.71886
L 437.432457 154.492555
L 438.485273 154.33331
L 439.304129 154.535084
L 440.278959 155.433891
L 441.409761 157.362359
L 442.38459 159.992971
L 443.593378 164.303712
L 444.529214 168.483599
L 445.46505 173.259145
L 447.687661 186.400664
L 450.222217 200.943589
L 450.963087 204.158374
L 451.353019 205.439578
L 452.444827 208.115544
L 452.795766 208.624389
L 453.029725 208.83729
L 453.263684 208.65325
L 453.497643 208.596927
L 453.731602 208.52753
L 454.043547 208.020969
L 454.472472 207.049639
L 455.135356 204.789427
L 456.344144 198.485148
L 457.825885 187.114591
L 459.034673 176.015647
L 459.775543 168.918614
L 460.984331 157.37858
L 461.959161 149.235097
L 463.55788 138.936472
L 464.181771 136.267299
L 464.53271 135.26885
L 465.312573 133.883422
L 465.819484 133.565355
L 466.287402 133.941601
L 466.521361 134.278651
L 467.106259 135.645923
L 468.276054 139.91942
L 469.835781 148.412907
L 472.799261 165.107241
L 473.462145 168.033217
L 474.358988 171.281627
L 475.294824 173.376706
L 475.567776 173.886221
L 475.879722 174.324259
L 476.503613 174.687921
L 476.737572 174.811808
L 476.971531 174.934247
L 477.20549 174.709616
L 477.439449 174.608941
L 477.673408 174.550714
L 478.375285 173.77687
L 478.648237 173.486439
L 478.882196 173.29977
L 479.623066 172.079102
L 482.469567 167.331909
L 483.912315 166.073197
L 484.10728 165.93344
L 484.458219 165.662021
L 484.848151 165.799961
L 485.238082 165.579581
L 485.861973 165.805039
L 486.212912 165.848296
L 486.797809 166.277576
L 486.992775 166.299383
L 489.566324 168.860916
L 489.956256 169.275282
L 490.268201 169.502013
L 490.775112 170.06548
L 491.126051 170.257886
L 491.749942 170.85673
L 492.061887 170.977838
L 492.646784 171.4251
L 493.114702 171.63441
L 493.816579 171.896215
L 495.649258 172.154046
L 496.000197 171.982266
L 496.546101 172.114925
L 497.130999 171.950462
L 497.442944 171.931261
L 497.910862 171.765354
L 498.300794 171.787118
L 499.11965 171.540067
L 499.470589 171.519417
L 499.899514 171.35241
L 500.289446 171.399569
L 500.874343 171.187098
L 501.303268 171.264898
L 501.771186 171.075483
L 502.122124 171.196084
L 502.590042 170.981976
L 502.979974 171.18434
L 503.486885 170.965292
L 503.91581 171.122852
L 504.383728 171.002932
L 504.77366 171.202217
L 505.202585 170.998728
L 505.63151 171.187596
L 505.982448 171.135245
L 506.606339 171.285509
L 507.893113 171.4858
L 508.244052 171.571946
L 508.517004 171.63167
L 508.867943 171.717832
L 509.140895 171.782094
L 509.491833 171.984684
L 509.842772 172.031829
L 510.232704 172.216731
L 510.466663 172.313798
L 510.856594 172.536269
L 511.129546 172.684149
L 511.480485 172.894735
L 511.714444 172.979596
L 512.143369 173.3082
L 512.377328 173.398778
L 512.884239 173.859716
L 513.118198 174.037941
L 513.50813 174.356088
L 513.742089 174.584134
L 514.054034 174.875356
L 514.287993 174.982297
L 514.833897 175.556268
L 515.028863 175.693624
L 515.535775 176.249279
L 516.393624 177.056106
L 516.666576 177.361344
L 516.978522 177.498825
L 517.368453 177.85239
L 517.602412 177.966839
L 517.953351 178.27204
L 518.265296 178.285531
L 518.655228 178.616799
L 519.04516 178.573248
L 519.357105 178.631811
L 519.942003 178.492418
L 520.175962 178.347041
L 520.5269 178.377529
L 521.033811 177.764166
L 521.228777 177.678857
L 521.774682 176.833755
L 522.749511 174.831751
L 523.841319 171.860249
L 525.673998 164.877324
L 527.038759 158.661542
L 529.495329 147.209048
L 531.133042 141.41769
L 531.873912 139.775088
L 532.302837 139.167528
L 533.004714 138.634762
L 533.667598 138.826481
L 533.94055 139.056596
L 534.759407 140.477293
L 535.344304 142.162835
L 535.812222 143.73364
L 536.865038 148.183195
L 538.931676 159.260668
L 540.452409 167.743507
L 542.168109 176.157904
L 542.636027 178.312791
L 543.025959 179.585913
L 543.337904 180.612255
L 543.805822 182.231263
L 544.117767 182.840081
L 544.702665 184.380583
L 545.01461 184.851932
L 545.638501 185.942213
L 546.106419 186.403895
L 546.535344 186.851853
L 547.783125 187.213511
L 548.09507 187.118964
L 548.485002 187.285828
L 549.108893 186.983191
L 549.420838 186.934373
L 550.161708 186.588538
L 550.356674 186.527494
L 550.980565 186.061352
L 551.760428 185.550512
L 553.983039 183.623945
L 555.542766 181.956767
L 556.20565 180.992657
L 556.439609 180.568427
L 556.94652 179.629569
L 557.765376 177.975049
L 561.118789 170.093402
L 563.22442 165.37801
L 563.497372 164.945516
L 564.004283 163.936536
L 564.316229 163.532409
L 565.057099 162.42828
L 565.447031 162.144201
L 565.836962 161.595722
L 566.187901 161.627988
L 566.694812 161.187764
L 567.435682 161.11477
L 567.708634 161.098324
L 568.137559 161.307226
L 568.410511 161.286647
L 569.931245 162.429085
L 570.204197 162.672337
L 570.477149 162.822941
L 572.231842 164.689018
L 572.426808 164.919344
L 572.816739 165.429299
L 573.128685 165.74343
L 573.479623 166.030618
L 573.713582 166.327918
L 573.986535 166.639224
L 574.337473 166.767625
L 574.766398 167.260193
L 575.078343 167.410118
L 575.936193 167.957881
L 576.209145 167.886995
L 576.677063 168.276801
L 576.950015 168.134681
L 577.456927 168.380156
L 578.275783 168.380962
L 578.470749 168.469572
L 578.665715 168.212494
L 578.860681 168.064487
L 579.289606 168.205059
L 579.640544 167.965007
L 579.874503 167.895245
L 580.186448 167.747541
L 580.420407 167.743597
L 580.927319 167.391744
L 581.122284 167.373576
L 581.590202 166.989634
L 581.785168 166.940311
L 582.1751 166.584175
L 582.409059 166.603068
L 582.954963 166.15566
L 583.110936 166.115731
L 583.617847 165.725825
L 583.812813 165.553298
L 584.046772 165.373082
L 584.397711 165.363568
L 584.748649 164.977582
L 585.060594 165.051019
L 585.450526 164.70853
L 585.684485 164.744741
L 586.074417 164.542037
L 586.308376 164.65937
L 586.542335 164.339866
L 586.698308 164.290603
L 587.088239 164.491701
L 587.361191 164.285596
L 587.829109 164.397879
L 588.024075 164.458658
L 588.297028 164.577929
L 588.608973 164.502457
L 588.998905 164.815868
L 589.232864 164.684194
L 589.427829 165.006463
L 589.622795 165.202073
L 589.973734 165.117807
L 590.363665 165.646411
L 590.636618 165.672189
L 591.494467 166.571928
L 591.884399 166.822498
L 592.235338 167.395192
L 592.50829 167.300505
L 592.703256 167.762371
L 592.937215 168.19401
L 593.288153 168.337067
L 594.068016 169.448493
L 594.262982 169.457484
L 594.418955 169.48502
L 594.613921 169.938632
L 594.84788 170.389899
L 595.237812 170.471368
L 595.627743 171.135261
L 595.939689 171.276131
L 596.563579 172.016273
L 596.758545 172.18235
L 597.07049 172.055519
L 597.30445 172.59047
L 597.460422 172.758008
L 597.499415 172.738142
L 597.811361 172.532849
L 598.318272 173.036204
L 598.591224 173.004588
L 599.410081 173.240107
L 599.683033 173.064482
L 600.072964 173.395233
L 600.111958 173.340063
L 600.423903 172.938183
L 600.852828 173.115518
L 601.203766 172.825489
L 601.515712 172.726515
L 602.568527 172.214859
L 602.7245 172.098311
L 603.153425 171.604195
L 603.387384 171.477622
L 603.777316 171.160059
L 603.972281 171.065278
L 604.479193 170.519653
L 604.674158 170.468285
L 605.609994 169.579725
L 605.882947 169.384792
L 606.311871 168.890878
L 606.584824 168.976032
L 606.77979 168.592681
L 607.013749 168.272988
L 607.481667 168.277892
L 607.910591 167.876169
L 608.300523 167.814916
L 608.534482 167.728276
L 608.924414 167.469495
L 609.275352 167.554162
L 609.626291 167.347212
L 610.016223 167.386184
L 610.289175 167.362468
L 610.640113 167.431146
L 610.913065 167.391571
L 611.380983 167.554888
L 611.653936 167.609776
L 612.08286 167.761805
L 612.628765 168.004632
L 613.486615 168.400606
L 613.876546 168.788266
L 614.227485 168.765944
L 614.773389 169.254808
L 615.202314 169.426491
L 615.865198 169.811819
L 616.060164 169.84175
L 616.684054 170.311337
L 616.957007 170.396599
L 617.73687 170.734026
L 618.009822 170.736491
L 618.555727 171.006584
L 618.984651 170.974559
L 619.33559 171.069988
L 619.608542 171.149661
L 620.115453 170.975578
L 620.388405 171.056775
L 621.324241 170.815297
L 621.519207 170.74736
L 621.987125 170.365941
L 622.260078 170.404159
L 623.234907 169.762494
L 623.468866 169.630326
L 624.01477 169.145006
L 624.248729 169.000549
L 624.911613 168.430765
L 625.223558 168.266824
L 625.418524 168.127166
L 625.886442 167.620518
L 626.120401 167.610494
L 627.134224 166.760854
L 627.368183 166.597789
L 627.758114 166.232777
L 628.031067 166.214759
L 628.498985 165.844323
L 628.732944 165.811682
L 629.161868 165.491337
L 629.434821 165.430333
L 629.746766 165.309909
L 629.980725 165.248579
L 630.29267 165.063599
L 630.682602 165.152103
L 630.994547 164.88446
L 631.423472 165.090544
L 631.696424 164.938919
L 632.554274 165.13864
L 632.866219 165.037014
L 633.295144 165.419973
L 633.60709 165.234477
L 634.075008 165.608413
L 634.269974 165.635738
L 634.659905 165.811614
L 634.854871 165.841174
L 635.283796 166.123231
L 635.478762 166.133721
L 635.985673 166.498972
L 636.180639 166.498444
L 636.648557 166.835893
L 636.843523 166.893087
L 637.233454 167.20013
L 637.467413 167.231553
L 637.857345 167.529561
L 638.091304 167.502249
L 638.598215 167.839482
L 638.793181 167.857284
L 639.183113 168.137338
L 639.417072 168.12577
L 639.845997 168.381927
L 640.079956 168.380527
L 640.469887 168.620693
L 640.74284 168.543223
L 641.210758 168.774342
L 641.444717 168.834247
L 641.717669 168.926577
L 642.029614 168.877148
L 642.380553 169.066295
L 642.692498 168.958829
L 643.08243 169.184547
L 643.394375 169.132913
L 643.70632 169.221568
L 643.979273 169.184885
L 644.369204 169.344306
L 644.642156 169.282016
L 645.071081 169.459548
L 645.344033 169.45153
L 646.123897 169.765787
L 646.591815 169.814021
L 646.90376 170.13717
L 647.293692 170.064383
L 647.722617 170.501779
L 648.112548 170.541905
L 648.424494 170.897318
L 648.736439 171.191181
L 649.087378 171.192877
L 649.711268 171.917159
L 649.906234 172.014478
L 654.741387 177.645129
L 654.936353 177.778933
L 655.443264 178.388137
L 655.872189 178.48386
L 656.535073 178.855643
L 656.808025 178.779903
L 657.275943 178.931346
L 658.250772 178.525669
L 658.445738 178.354754
L 658.952649 177.718783
L 659.186608 177.544008
L 659.57654 176.797141
L 660.044458 176.024405
L 660.278417 175.657252
L 662.423041 169.508895
L 662.929953 167.854441
L 664.25572 162.971221
L 665.035584 160.021852
L 666.049406 156.408469
L 667.726112 151.195755
L 668.155037 150.200395
L 668.505976 149.451079
L 668.817921 149.136226
L 669.324832 148.28777
L 669.675771 148.123912
L 670.182682 147.780929
L 670.416641 147.909004
L 670.689593 148.01874
L 671.001539 148.004581
L 671.235498 148.376333
L 671.547443 148.688714
L 671.742409 148.883368
L 672.639252 150.724115
L 674.315958 155.856071
L 676.733534 166.028482
L 677.084473 167.680675
L 677.591384 169.815535
L 679.969967 178.939057
L 681.178756 182.267697
L 682.114592 183.913802
L 682.543517 184.368137
L 682.894455 184.656713
L 683.245394 184.91371
L 684.337202 184.795113
L 685.078072 184.248158
L 686.130888 182.659572
L 686.988738 180.951116
L 688.626451 176.867421
L 689.172355 175.403638
L 689.679266 173.952575
L 690.147184 172.73084
L 690.420137 172.037144
L 690.927048 170.592897
L 691.2 170.025803
L 691.2 170.025803
" clip-path="url(#p6117c44593)" style="fill: none; stroke: #000000; stroke-linecap: square"/>
   </g>
   <g id="patch_3">
    <path d="M 57.6 295.2
L 57.6 43.2
" style="fill: none; stroke: #000000; stroke-width: 0.8; stroke-linejoin: miter; stroke-linecap: square"/>
   </g>
   <g id="patch_4">
    <path d="M 691.2 295.2
L 691.2 43.2
" style="fill: none; stroke: #000000; stroke-width: 0.8; stroke-linejoin: miter; stroke-linecap: square"/>
   </g>
   <g id="patch_5">
    <path d="M 57.6 295.2
L 691.2 295.2
" style="fill: none; stroke: #000000; stroke-width: 0.8; stroke-linejoin: miter; stroke-linecap: square"/>
   </g>
   <g id="patch_6">
    <path d="M 57.6 43.2
L 691.2 43.2
" style="fill: none; stroke: #000000; stroke-width: 0.8; stroke-linejoin: miter; stroke-linecap: square"/>
   </g>
   <g id="text_7">
    <g id="patch_7">
     <path d="M 70.272 66.360878
L 142.844522 66.360878
Q 145.343522 66.360878 145.343522 63.861878
L 145.343522 55.8
Q 145.343522 53.301 142.844522 53.301
L 70.272 53.301
Q 67.773 53.301 67.773 55.8
L 67.773 63.861878
Q 67.773 66.360878 70.272 66.360878
z
" style="fill: #ffffff; opacity: 0.8; stroke: #000000; stroke-linejoin: miter"/>
    </g>
    <!-- AA.S0001.S2.PRE -->
    <g transform="translate(70.272 62.129498) scale(0.0833 -0.0833)">
     <defs>
      <path id="DejaVuSans-41" d="M 2188 4044
L 1331 1722
L 3047 1722
L 2188 4044
z
M 1831 4666
L 2547 4666
L 4325 0
L 3669 0
L 3244 1197
L 1141 1197
L 716 0
L 50 0
L 1831 4666
z
" transform="scale(0.015625)"/>
      <path id="DejaVuSans-53" d="M 3425 4513
L 3425 3897
Q 3066 4069 2747 4153
Q 2428 4238 2131 4238
Q 1616 4238 1336 4038
Q 1056 3838 1056 3469
Q 1056 3159 1242 3001
Q 1428 2844 1947 2747
L 2328 2669
Q 3034 2534 3370 2195
Q 3706 1856 3706 1288
Q 3706 609 3251 259
Q 2797 -91 1919 -91
Q 1588 -91 1214 -16
Q 841 59 441 206
L 441 856
Q 825 641 1194 531
Q 1563 422 1919 422
Q 2459 422 2753 634
Q 3047 847 3047 1241
Q 3047 1584 2836 1778
Q 2625 1972 2144 2069
L 1759 2144
Q 1053 2284 737 2584
Q 422 2884 422 3419
Q 422 4038 858 4394
Q 1294 4750 2059 4750
Q 2388 4750 2728 4690
Q 3069 4631 3425 4513
z
" transform="scale(0.015625)"/>
      <path id="DejaVuSans-32" d="M 1228 531
L 3431 531
L 3431 0
L 469 0
L 469 531
Q 828 903 1448 1529
Q 2069 2156 2228 2338
Q 2531 2678 2651 2914
Q 2772 3150 2772 3378
Q 2772 3750 2511 3984
Q 2250 4219 1831 4219
Q 1534 4219 1204 4116
Q 875 4013 500 3803
L 500 4441
Q 881 4594 1212 4672
Q 1544 4750 1819 4750
Q 2544 4750 2975 4387
Q 3406 4025 3406 3419
Q 3406 3131 3298 2873
Q 3191 2616 2906 2266
Q 2828 2175 2409 1742
Q 1991 1309 1228 531
z
" transform="scale(0.015625)"/>
      <path id="DejaVuSans-50" d="M 1259 4147
L 1259 2394
L 2053 2394
Q 2494 2394 2734 2622
Q 2975 2850 2975 3272
Q 2975 3691 2734 3919
Q 2494 4147 2053 4147
L 1259 4147
z
M 628 4666
L 2053 4666
Q 2838 4666 3239 4311
Q 3641 3956 3641 3272
Q 3641 2581 3239 2228
Q 2838 1875 2053 1875
L 1259 1875
L 1259 0
L 628 0
L 628 4666
z
" transform="scale(0.015625)"/>
      <path id="DejaVuSans-52" d="M 2841 2188
Q 3044 2119 3236 1894
Q 3428 1669 3622 1275
L 4263 0
L 3584 0
L 2988 1197
Q 2756 1666 2539 1819
Q 2322 1972 1947 1972
L 1259 1972
L 1259 0
L 628 0
L 628 4666
L 2053 4666
Q 2853 4666 3247 4331
Q 3641 3997 3641 3322
Q 3641 2881 3436 2590
Q 3231 2300 2841 2188
z
M 1259 4147
L 1259 2491
L 2053 2491
Q 2509 2491 2742 2702
Q 2975 2913 2975 3322
Q 2975 3731 2742 3939
Q 2509 4147 2053 4147
L 1259 4147
z
" transform="scale(0.015625)"/>
      <path id="DejaVuSans-45" d="M 628 4666
L 3578 4666
L 3578 4134
L 1259 4134
L 1259 2753
L 3481 2753
L 3481 2222
L 1259 2222
L 1259 531
L 3634 531
L 3634 0
L 628 0
L 628 4666
z
" transform="scale(0.015625)"/>
     </defs>
     <use xlink:href="#DejaVuSans-41"/>
     <use xlink:href="#DejaVuSans-41" transform="translate(71.158203 0)"/>
     <use xlink:href="#DejaVuSans-2e" transform="translate(137.816406 0)"/>
     <use xlink:href="#DejaVuSans-53" transform="translate(169.603516 0)"/>
     <use xlink:href="#DejaVuSans-30" transform="translate(233.080078 0)"/>
     <use xlink:href="#DejaVuSans-30" transform="translate(296.703125 0)"/>
     <use xlink:href="#DejaVuSans-30" transform="translate(360.326172 0)"/>
     <use xlink:href="#DejaVuSans-31" transform="translate(423.949219 0)"/>
     <use xlink:href="#DejaVuSans-2e" transform="translate(487.572266 0)"/>
     <use xlink:href="#DejaVuSans-53" transform="translate(519.359375 0)"/>
     <use xlink:href="#DejaVuSans-32" transform="translate(582.835938 0)"/>
     <use xlink:href="#DejaVuSans-2e" transform="translate(646.458984 0)"/>
     <use xlink:href="#DejaVuSans-50" transform="translate(678.246094 0)"/>
     <use xlink:href="#DejaVuSans-52" transform="translate(738.548828 0)"/>
     <use xlink:href="#DejaVuSans-45" transform="translate(808.03125 0)"/>
    </g>
   </g>
  </g>
  <g id="axes_2">
   <g id="patch_8">
    <path d="M 57.6 547.2
L 691.2 547.2
L 691.2 295.2
L 57.6 295.2
z
" style="fill: #ffffff"/>
   </g>
   <g id="matplotlib.axis_3">
    <g id="xtick_5">
     <g id="line2d_11">
      <g>
       <use xlink:href="#m4b4937c8e3" x="104.391803" y="547.2" style="stroke: #000000; stroke-width: 0.8"/>
      </g>
     </g>
     <g id="text_8">
      <!-- 1970-01-01T00:00:00 -->
      <g transform="translate(58.936685 560.529498) scale(0.0833 -0.0833)">
       <defs>
        <path id="DejaVuSans-39" d="M 703 97
L 703 672
Q 941 559 1184 500
Q 1428 441 1663 441
Q 2288 441 2617 861
Q 2947 1281 2994 2138
Q 2813 1869 2534 1725
Q 2256 1581 1919 1581
Q 1219 1581 811 2004
Q 403 2428 403 3163
Q 403 3881 828 4315
Q 1253 4750 1959 4750
Q 2769 4750 3195 4129
Q 3622 3509 3622 2328
Q 3622 1225 3098 567
Q 2575 -91 1691 -91
Q 1453 -91 1209 -44
Q 966 3 703 97
z
M 1959 2075
Q 2384 2075 2632 2365
Q 2881 2656 2881 3163
Q 2881 3666 2632 3958
Q 2384 4250 1959 4250
Q 1534 4250 1286 3958
Q 1038 3666 1038 3163
Q 1038 2656 1286 2365
Q 1534 2075 1959 2075
z
" transform="scale(0.015625)"/>
        <path id="DejaVuSans-37" d="M 525 4666
L 3525 4666
L 3525 4397
L 1831 0
L 1172 0
L 2766 4134
L 525 4134
L 525 4666
z
" transform="scale(0.015625)"/>
        <path id="DejaVuSans-2d" d="M 313 2009
L 1997 2009
L 1997 1497
L 313 1497
L 313 2009
z
" transform="scale(0.015625)"/>
        <path id="DejaVuSans-54" d="M -19 4666
L 3928 4666
L 3928 4134
L 2272 4134
L 2272 0
L 1638 0
L 1638 4134
L -19 4134
L -19 4666
z
" transform="scale(0.015625)"/>
        <path id="DejaVuSans-3a" d="M 750 794
L 1409 794
L 1409 0
L 750 0
L 750 794
z
M 750 3309
L 1409 3309
L 1409 2516
L 750 2516
L 750 3309
z
" transform="scale(0.015625)"/>
       </defs>
       <use xlink:href="#DejaVuSans-31"/>
       <use xlink:href="#DejaVuSans-39" transform="translate(63.623047 0)"/>
       <use xlink:href="#DejaVuSans-37" transform="translate(127.246094 0)"/>
       <use xlink:href="#DejaVuSans-30" transform="translate(190.869141 0)"/>
       <use xlink:href="#DejaVuSans-2d" transform="translate(254.492188 0)"/>
       <use xlink:href="#DejaVuSans-30" transform="translate(290.576172 0)"/>
       <use xlink:href="#DejaVuSans-31" transform="translate(354.199219 0)"/>
       <use xlink:href="#DejaVuSans-2d" transform="translate(417.822266 0)"/>
       <use xlink:href="#DejaVuSans-30" transform="translate(453.90625 0)"/>
       <use xlink:href="#DejaVuSans-31" transform="translate(517.529297 0)"/>
       <use xlink:href="#DejaVuSans-54" transform="translate(581.152344 0)"/>
       <use xlink:href="#DejaVuSans-30" transform="translate(642.236328 0)"/>
       <use xlink:href="#DejaVuSans-30" transform="translate(705.859375 0)"/>
       <use xlink:href="#DejaVuSans-3a" transform="translate(769.482422 0)"/>
       <use xlink:href="#DejaVuSans-30" transform="translate(803.173828 0)"/>
       <use xlink:href="#DejaVuSans-30" transform="translate(866.796875 0)"/>
       <use xlink:href="#DejaVuSans-3a" transform="translate(930.419922 0)"/>
       <use xlink:href="#DejaVuSans-30" transform="translate(964.111328 0)"/>
       <use xlink:href="#DejaVuSans-30" transform="translate(1027.734375 0)"/>
      </g>
     </g>
    </g>
    <g id="xtick_6">
     <g id="line2d_12">
      <g>
       <use xlink:href="#m4b4937c8e3" x="299.357647" y="547.2" style="stroke: #000000; stroke-width: 0.8"/>
      </g>
     </g>
     <g id="text_9">
      <!-- 00:00:05 -->
      <g transform="translate(280.65159 560.529498) scale(0.0833 -0.0833)">
       <use xlink:href="#DejaVuSans-30"/>
       <use xlink:href="#DejaVuSans-30" transform="translate(63.623047 0)"/>
       <use xlink:href="#DejaVuSans-3a" transform="translate(127.246094 0)"/>
       <use xlink:href="#DejaVuSans-30" transform="translate(160.9375 0)"/>
       <use xlink:href="#DejaVuSans-30" transform="translate(224.560547 0)"/>
       <use xlink:href="#DejaVuSans-3a" transform="translate(288.183594 0)"/>
       <use xlink:href="#DejaVuSans-30" transform="translate(321.875 0)"/>
       <use xlink:href="#DejaVuSans-35" transform="translate(385.498047 0)"/>
      </g>
     </g>
    </g>
    <g id="xtick_7">
     <g id="line2d_13">
      <g>
       <use xlink:href="#m4b4937c8e3" x="494.323491" y="547.2" style="stroke: #000000; stroke-width: 0.8"/>
      </g>
     </g>
     <g id="text_10">
      <!-- 00:00:10 -->
      <g transform="translate(475.617434 560.529498) scale(0.0833 -0.0833)">
       <use xlink:href="#DejaVuSans-30"/>
       <use xlink:href="#DejaVuSans-30" transform="translate(63.623047 0)"/>
       <use xlink:href="#DejaVuSans-3a" transform="translate(127.246094 0)"/>
       <use xlink:href="#DejaVuSans-30" transform="translate(160.9375 0)"/>
       <use xlink:href="#DejaVuSans-30" transform="translate(224.560547 0)"/>
       <use xlink:href="#DejaVuSans-3a" transform="translate(288.183594 0)"/>
       <use xlink:href="#DejaVuSans-31" transform="translate(321.875 0)"/>
       <use xlink:href="#DejaVuSans-30" transform="translate(385.498047 0)"/>
      </g>
     </g>
    </g>
    <g id="xtick_8">
     <g id="line2d_14">
      <g>
       <use xlink:href="#m4b4937c8e3" x="689.289335" y="547.2" style="stroke: #000000; stroke-width: 0.8"/>
      </g>
     </g>
     <g id="text_11">
      <!-- 00:00:15 -->
      <g transform="translate(670.583278 560.529498) scale(0.0833 -0.0833)">
       <use xlink:href="#DejaVuSans-30"/>
       <use xlink:href="#DejaVuSans-30" transform="translate(63.623047 0)"/>
       <use xlink:href="#DejaVuSans-3a" transform="translate(127.246094 0)"/>
       <use xlink:href="#DejaVuSans-30" transform="translate(160.9375 0)"/>
       <use xlink:href="#DejaVuSans-30" transform="translate(224.560547 0)"/>
       <use xlink:href="#DejaVuSans-3a" transform="translate(288.183594 0)"/>
       <use xlink:href="#DejaVuSans-31" transform="translate(321.875 0)"/>
       <use xlink:href="#DejaVuSans-35" transform="translate(385.498047 0)"/>
      </g>
     </g>
    </g>
   </g>
   <g id="matplotlib.axis_4">
    <g id="ytick_6">
     <g id="line2d_15">
      <g>
       <use xlink:href="#m7bed795e60" x="57.6" y="505.573233" style="stroke: #000000; stroke-width: 0.8"/>
      </g>
     </g>
     <g id="text_12">
      <!-- −3.0 -->
      <g transform="translate(30.372417 508.737982) scale(0.0833 -0.0833)">
       <use xlink:href="#DejaVuSans-2212"/>
       <use xlink:href="#DejaVuSans-33" transform="translate(83.789062 0)"/>
       <use xlink:href="#DejaVuSans-2e" transform="translate(147.412109 0)"/>
       <use xlink:href="#DejaVuSans-30" transform="translate(179.199219 0)"/>
      </g>
     </g>
    </g>
    <g id="ytick_7">
     <g id="line2d_16">
      <g>
       <use xlink:href="#m7bed795e60" x="57.6" y="462.753201" style="stroke: #000000; stroke-width: 0.8"/>
      </g>
     </g>
     <g id="text_13">
      <!-- −1.5 -->
      <g transform="translate(30.372417 465.91795) scale(0.0833 -0.0833)">
       <use xlink:href="#DejaVuSans-2212"/>
       <use xlink:href="#DejaVuSans-31" transform="translate(83.789062 0)"/>
       <use xlink:href="#DejaVuSans-2e" transform="translate(147.412109 0)"/>
       <use xlink:href="#DejaVuSans-35" transform="translate(179.199219 0)"/>
      </g>
     </g>
    </g>
    <g id="ytick_8">
     <g id="line2d_17">
      <g>
       <use xlink:href="#m7bed795e60" x="57.6" y="419.933169" style="stroke: #000000; stroke-width: 0.8"/>
      </g>
     </g>
     <g id="text_14">
      <!-- 0.0 -->
      <g transform="translate(37.352697 423.097919) scale(0.0833 -0.0833)">
       <use xlink:href="#DejaVuSans-30"/>
       <use xlink:href="#DejaVuSans-2e" transform="translate(63.623047 0)"/>
       <use xlink:href="#DejaVuSans-30" transform="translate(95.410156 0)"/>
      </g>
     </g>
    </g>
    <g id="ytick_9">
     <g id="line2d_18">
      <g>
       <use xlink:href="#m7bed795e60" x="57.6" y="377.113138" style="stroke: #000000; stroke-width: 0.8"/>
      </g>
     </g>
     <g id="text_15">
      <!-- 1.5 -->
      <g transform="translate(37.352697 380.277887) scale(0.0833 -0.0833)">
       <use xlink:href="#DejaVuSans-31"/>
       <use xlink:href="#DejaVuSans-2e" transform="translate(63.623047 0)"/>
       <use xlink:href="#DejaVuSans-35" transform="translate(95.410156 0)"/>
      </g>
     </g>
    </g>
    <g id="ytick_10">
     <g id="line2d_19">
      <g>
       <use xlink:href="#m7bed795e60" x="57.6" y="334.293106" style="stroke: #000000; stroke-width: 0.8"/>
      </g>
     </g>
     <g id="text_16">
      <!-- 3.0 -->
      <g transform="translate(37.352697 337.457855) scale(0.0833 -0.0833)">
       <use xlink:href="#DejaVuSans-33"/>
       <use xlink:href="#DejaVuSans-2e" transform="translate(63.623047 0)"/>
       <use xlink:href="#DejaVuSans-30" transform="translate(95.410156 0)"/>
      </g>
     </g>
    </g>
    <g id="text_17">
     <!-- 1e−15 -->
     <g transform="translate(57.6 292.2) scale(0.1 -0.1)">
      <use xlink:href="#DejaVuSans-31"/>
      <use xlink:href="#DejaVuSans-65" transform="translate(63.623047 0)"/>
      <use xlink:href="#DejaVuSans-2212" transform="translate(125.146484 0)"/>
      <use xlink:href="#DejaVuSans-31" transform="translate(208.935547 0)"/>
      <use xlink:href="#DejaVuSans-35" transform="translate(272.558594 0)"/>
     </g>
    </g>
   </g>
   <g id="line2d_20">
    <path d="M 57.6 419.933169
L 137.847941 420.042894
L 140.65545 420.291872
L 142.527122 420.669899
L 144.047855 421.200367
L 145.373623 421.902503
L 146.582411 422.798395
L 147.752206 423.950676
L 148.922001 425.423768
L 150.169783 427.36951
L 151.61253 430.078068
L 153.991113 435.178422
L 155.511847 438.213278
L 156.40869 439.587961
L 157.188553 440.351014
L 157.734458 440.585305
L 158.163382 440.550729
L 158.670294 440.243592
L 159.060225 439.763169
L 159.645123 438.675663
L 160.308007 436.788801
L 161.08787 433.628334
L 161.82874 429.655223
L 162.725583 423.518374
L 163.817392 414.147566
L 164.909201 403.092473
L 167.209798 376.825844
L 168.808517 359.971251
L 169.549388 353.598517
L 170.251265 348.85146
L 170.719183 346.646485
L 171.265087 344.830488
L 171.849985 344.134634
L 172.200923 344.413421
L 172.434882 344.819126
L 172.9028 346.403296
L 173.253739 348.200795
L 173.916623 352.945198
L 174.813465 362.048394
L 175.515342 371.212851
L 176.490172 386.359952
L 178.43983 421.633316
L 180.272509 454.53304
L 181.442304 472.061362
L 182.37814 482.947899
L 183.041024 488.580845
L 183.586928 491.771423
L 184.015853 493.582111
L 184.71773 494.764743
L 184.756723 494.739622
L 185.341621 494.009826
L 185.614573 493.2484
L 186.199471 490.650252
L 186.667389 487.814909
L 187.408259 482.00897
L 188.695034 469.131616
L 192.945289 422.093635
L 194.154077 412.790034
L 195.05092 407.739255
L 196.259708 403.217468
L 196.844606 402.079357
L 197.312524 401.602862
L 197.546483 401.368442
L 198.638292 401.834144
L 199.574128 403.252563
L 199.886073 403.921346
L 200.159025 404.299128
L 204.019349 413.66662
L 205.111158 415.928643
L 205.345117 416.216102
L 205.852028 417.068778
L 206.085987 417.398679
L 206.436925 417.865347
L 206.709878 418.184242
L 207.021823 418.541958
L 207.294775 418.714955
L 207.7237 419.148895
L 207.996652 419.309104
L 208.386584 419.588131
L 208.698529 419.840166
L 208.893495 419.889632
L 209.20544 419.867316
L 209.634365 420.179682
L 209.907317 420.127596
L 210.336242 420.310506
L 210.609194 420.342465
L 210.882147 420.377984
L 211.194092 420.328605
L 211.54503 420.504964
L 211.934962 420.334184
L 212.246908 420.437153
L 212.792812 420.286775
L 213.416703 420.233423
L 213.767641 420.040339
L 214.079586 420.103631
L 214.586498 419.834348
L 214.820457 419.826027
L 215.912265 419.244889
L 216.107231 419.123358
L 216.497163 418.768695
L 216.770115 418.686384
L 218.329842 417.223915
L 218.641787 416.823148
L 218.992726 416.4922
L 219.265678 416.195437
L 219.694603 415.677295
L 219.967555 415.346901
L 220.39648 414.813087
L 220.708425 414.405823
L 221.176343 413.865591
L 223.126002 411.621687
L 223.632913 411.171534
L 223.983851 410.894943
L 224.295797 410.698062
L 224.646735 410.454213
L 224.997674 410.468883
L 225.426599 410.225386
L 225.777537 410.226673
L 226.050489 410.228269
L 227.688202 411.179093
L 228.741018 412.482781
L 230.495711 415.601738
L 230.885642 416.561426
L 231.158594 416.951513
L 232.601342 420.594226
L 235.40885 426.909983
L 236.812604 428.93394
L 236.968577 429.008692
L 237.592467 429.695925
L 238.294344 430.071968
L 238.567296 430.111696
L 238.879242 430.068865
L 239.191187 430.129698
L 239.620112 429.880497
L 239.815078 429.848479
L 240.360982 429.444295
L 240.516955 429.328016
L 241.062859 428.623969
L 241.296818 428.305148
L 242.037688 427.143743
L 242.622586 426.079174
L 242.895538 425.685395
L 243.090504 425.39302
L 243.636408 424.280356
L 243.870367 423.802639
L 244.338285 422.832885
L 245.547074 420.47196
L 245.703046 420.212134
L 246.170964 419.175612
L 246.36593 418.950681
L 246.989821 417.835962
L 247.535725 417.032398
L 247.730691 416.749052
L 248.08163 416.166482
L 248.354582 415.93999
L 248.744514 415.517065
L 248.939479 415.40577
L 249.368404 414.938541
L 249.641356 414.939954
L 250.070281 414.555741
L 250.382227 414.575878
L 250.772158 414.490098
L 251.279069 414.519604
L 251.513028 414.668147
L 251.90296 414.537971
L 252.292892 414.937288
L 252.526851 414.870942
L 253.462687 415.847662
L 253.696646 415.924181
L 253.852619 416.007486
L 254.905434 417.277853
L 255.139393 417.544525
L 255.568318 418.171569
L 255.763284 418.279003
L 256.933079 419.965438
L 257.128045 420.122385
L 257.712942 420.888368
L 257.946901 421.227705
L 258.29784 421.65282
L 258.609785 422.001359
L 258.999717 422.338443
L 259.701594 422.94446
L 260.715416 423.67381
L 261.105348 423.915524
L 261.339307 424.016148
L 261.729239 423.958204
L 262.041184 424.178342
L 262.509102 423.954667
L 262.782054 424.061988
L 264.068829 423.37208
L 264.380774 423.106214
L 264.653726 423.016594
L 266.525398 420.966011
L 266.837344 420.554166
L 267.695194 419.417866
L 268.046132 419.011395
L 268.436064 418.475996
L 268.709016 418.224653
L 269.25492 417.487713
L 269.527872 417.21005
L 270.190756 416.445986
L 271.087599 415.655922
L 271.555517 415.424474
L 271.906456 415.156912
L 272.413367 415.055779
L 272.842292 414.901225
L 273.31021 414.894553
L 273.583162 414.894545
L 273.973094 415.042634
L 274.285039 414.976585
L 274.752957 415.257579
L 274.947923 415.314881
L 275.376848 415.626022
L 275.610807 415.619568
L 276.156711 416.126083
L 276.312684 416.14747
L 276.546643 416.519913
L 276.819595 416.774207
L 277.170534 416.962778
L 277.677445 417.558518
L 277.950397 417.758618
L 278.184356 417.79032
L 278.418315 418.207711
L 278.652274 418.467527
L 278.964219 418.546565
L 279.627103 419.214628
L 280.640926 419.9067
L 280.835891 419.967238
L 281.225823 420.310951
L 281.459782 420.284668
L 281.9277 420.621465
L 282.161659 420.546209
L 282.629577 420.911626
L 282.863536 420.829163
L 283.370447 420.99931
L 284.26729 421.230598
L 284.423263 421.24984
L 284.813195 421.098154
L 285.086147 421.234929
L 285.437085 421.150128
L 285.710038 421.269219
L 286.099969 421.129979
L 286.372921 421.285555
L 286.762853 421.152443
L 287.035805 421.323438
L 287.425737 421.231962
L 287.698689 421.313472
L 287.971641 421.262579
L 288.32258 421.453254
L 288.634525 421.353965
L 288.985464 421.623924
L 289.297409 421.497495
L 289.726334 421.79983
L 289.999286 421.80746
L 290.389218 421.932549
L 290.584184 422.111098
L 290.818143 422.298808
L 291.208074 422.186026
L 291.559013 422.633554
L 291.870958 422.465566
L 292.338876 422.843753
L 292.533842 422.887172
L 292.845787 423.050251
L 293.079746 423.000534
L 293.508671 423.405628
L 293.547664 423.359785
L 293.781623 423.19667
L 294.288535 423.524057
L 294.483501 423.452071
L 294.951419 423.618196
L 295.185378 423.71745
L 295.380343 423.75214
L 295.731282 423.595161
L 296.043227 423.708495
L 296.355173 423.53555
L 296.667118 423.675212
L 297.05705 423.361732
L 297.291009 423.458811
L 297.719934 423.107675
L 297.758927 423.148548
L 297.953893 423.205542
L 298.382817 422.751703
L 298.421811 422.783989
L 298.577783 422.829682
L 298.772749 422.508439
L 298.967715 422.291217
L 299.27966 422.325484
L 299.708585 421.790341
L 299.903551 421.773398
L 300.449455 421.302366
L 300.605428 421.146544
L 300.956367 420.718637
L 301.190326 420.653242
L 301.658244 420.12835
L 301.814216 420.057943
L 302.282134 419.583229
L 302.438107 419.523408
L 302.906025 419.057562
L 303.061998 419.080579
L 303.21797 418.783268
L 303.451929 418.376157
L 303.607902 418.507854
L 303.763875 418.56206
L 303.958841 418.180696
L 304.1928 417.928912
L 304.465752 417.96413
L 304.855683 417.661474
L 305.050649 417.64344
L 305.479574 417.336356
L 305.713533 417.431922
L 306.142458 417.065606
L 306.376417 417.18697
L 306.844335 417.002073
L 307.039301 416.986269
L 307.312253 416.863584
L 307.702185 417.037941
L 307.975137 416.851315
L 308.365069 417.087729
L 308.599028 416.955299
L 309.027952 417.198042
L 309.261912 417.08434
L 309.690836 417.493437
L 309.72983 417.453409
L 309.924795 417.340949
L 310.119761 417.568999
L 310.35372 417.730021
L 310.626672 417.796481
L 310.899625 417.91602
L 311.133584 417.927032
L 311.601502 418.318878
L 311.835461 418.242738
L 312.303379 418.70381
L 312.498345 418.665303
L 313.512167 419.390835
L 313.785119 419.365857
L 314.29203 419.733105
L 314.486996 419.829366
L 314.798941 420.007406
L 315.0329 420.044209
L 315.422832 420.307299
L 315.695784 420.22437
L 316.085716 420.693924
L 316.124709 420.662961
L 316.397661 420.475828
L 316.982559 420.811247
L 317.216518 420.834519
L 317.957388 421.060822
L 318.23034 420.955447
L 318.698258 421.183706
L 318.932217 421.082598
L 319.361142 421.19484
L 319.595101 421.125668
L 319.985033 421.216896
L 320.257985 421.101278
L 320.647917 421.222254
L 321.037848 421.039812
L 321.661739 421.119328
L 321.934691 420.908752
L 322.129657 420.853404
L 322.519589 420.963995
L 322.909521 420.70867
L 323.260459 420.78773
L 323.88435 420.542772
L 325.911995 419.985541
L 327.978633 419.413878
L 328.251585 419.276529
L 328.56353 419.152085
L 328.914469 419.165185
L 329.382387 418.943156
L 329.694332 418.914114
L 330.279229 418.680097
L 330.630168 418.635416
L 331.098086 418.489817
L 331.371038 418.406207
L 331.721977 418.258854
L 332.150902 418.207705
L 332.930765 417.980054
L 333.35969 417.861999
L 333.632642 417.829145
L 333.944587 417.792268
L 334.334519 417.672973
L 334.685458 417.629151
L 335.426328 417.476104
L 335.816259 417.469975
L 336.128205 417.331601
L 336.518137 417.449952
L 336.830082 417.282826
L 337.220014 417.364911
L 337.531959 417.267887
L 337.921891 417.372753
L 338.311822 417.333198
L 339.013699 417.35522
L 339.286651 417.342773
L 339.676583 417.567358
L 340.027522 417.451443
L 340.37846 417.686532
L 340.729399 417.573464
L 341.158324 417.814333
L 341.509262 417.81949
L 342.328119 418.066843
L 342.523084 418.111437
L 342.913016 418.379652
L 343.224962 418.296656
L 343.69288 418.622691
L 343.926839 418.585084
L 344.43375 418.91861
L 344.667709 418.953512
L 345.252606 419.258053
L 345.759518 419.464308
L 346.110456 419.698926
L 346.422401 419.742394
L 346.812333 420.077267
L 347.124278 419.953108
L 347.397231 420.386889
L 347.592196 420.476113
L 347.904142 420.40803
L 348.645012 420.859269
L 348.956957 421.07071
L 349.307896 421.272803
L 349.658834 421.357293
L 350.126752 421.678693
L 350.399705 421.753081
L 350.867623 422.039031
L 351.179568 422.213696
L 351.5695 422.397491
L 352.232384 422.716962
L 353.987076 423.448063
L 354.260028 423.553886
L 354.571974 423.66373
L 354.922912 423.654941
L 355.39083 423.866184
L 355.741769 423.79961
L 356.209687 423.882826
L 356.677605 423.809604
L 357.067536 423.764751
L 358.549277 423.007673
L 359.524106 422.048503
L 359.797058 421.835897
L 359.992024 421.73106
L 360.225983 421.222369
L 360.537928 420.706667
L 360.810881 420.52493
L 361.083833 419.787774
L 361.356785 419.281736
L 361.66873 418.898406
L 363.462416 414.150301
L 365.879993 405.814597
L 366.854822 401.835791
L 369.350385 391.742624
L 371.105077 386.569028
L 371.962927 385.148431
L 372.430845 385.023939
L 372.703797 385.043322
L 373.132722 385.40852
L 373.444667 386.004375
L 373.990572 387.398481
L 374.965401 391.953202
L 375.550298 395.802078
L 376.564121 404.723583
L 377.382977 414.154141
L 378.786731 434.253524
L 380.463438 463.24586
L 383.582891 516.086493
L 384.518727 526.890158
L 385.298591 532.908542
L 385.805502 535.066472
L 386.078454 535.731495
L 386.234427 535.675686
L 386.780331 535.003869
L 387.170263 533.07417
L 387.482208 531.110443
L 388.145092 524.448388
L 388.846969 514.524503
L 389.938778 493.595556
L 390.796627 472.939972
L 392.473334 426.578596
L 395.436815 347.394466
L 396.294664 330.535277
L 397.191507 317.527436
L 397.737412 312.126888
L 398.439289 307.809031
L 398.985193 306.660997
L 399.180159 306.716149
L 399.375125 307.082004
L 399.843043 308.838396
L 400.077002 309.972441
L 400.817872 316.078292
L 401.714715 327.136765
L 402.845517 344.537028
L 406.978793 413.879673
L 408.187581 427.813211
L 408.733485 432.739322
L 409.708314 439.210171
L 410.215226 441.226466
L 410.64415 442.611786
L 411.307034 443.468001
L 411.696966 443.715997
L 412.281863 443.348513
L 412.398843 443.257846
L 412.710788 442.391685
L 413.022734 441.928541
L 413.256693 441.314658
L 414.075549 438.89209
L 415.869235 432.672146
L 416.142187 431.841249
L 416.376146 431.319401
L 416.961044 429.554942
L 418.130839 426.683179
L 419.261641 424.997643
L 419.339627 425.077368
L 419.573586 425.227812
L 419.768552 424.792021
L 419.963518 424.49471
L 420.11949 424.676941
L 420.314456 424.872234
L 420.470429 424.701454
L 420.704388 424.501801
L 422.186128 425.369307
L 422.654046 425.872716
L 423.121964 426.203758
L 423.550889 426.685788
L 423.823841 426.846752
L 424.486725 427.592426
L 425.227596 428.319944
L 425.500548 428.608822
L 425.929473 428.599076
L 426.319404 429.187006
L 426.709336 429.082851
L 427.099268 429.448928
L 427.489199 429.300959
L 427.879131 429.488908
L 428.697988 429.434092
L 428.931947 429.428015
L 429.516844 429.155514
L 429.750803 429.028101
L 430.023755 428.916158
L 430.296707 428.838506
L 430.725632 428.54995
L 430.959591 428.4201
L 431.31053 428.152886
L 431.544489 428.111698
L 432.0514 427.668611
L 432.246366 427.642733
L 432.831263 427.140594
L 433.377168 426.801311
L 433.611127 426.508936
L 433.845086 426.324011
L 434.157031 426.374019
L 434.585956 425.858368
L 434.819915 425.974825
L 435.014881 425.665995
L 435.24884 425.425663
L 435.560785 425.384682
L 435.911724 425.129534
L 436.184676 425.130748
L 436.73058 424.725519
L 437.276485 424.480774
L 437.666416 424.194433
L 437.939369 424.410986
L 437.978362 424.368431
L 438.368293 423.606243
L 438.44628 423.722682
L 438.680239 424.087452
L 438.719232 424.059756
L 438.914198 423.591981
L 439.109164 423.345492
L 439.460102 423.447409
L 439.811041 423.124735
L 440.045 423.071378
L 440.434931 422.756681
L 440.66889 422.788515
L 441.292781 422.245994
L 441.487747 422.12126
L 442.189624 421.507527
L 442.501569 421.318675
L 442.930494 420.817881
L 443.12546 420.770033
L 443.632371 420.243512
L 443.788344 420.244283
L 443.98331 419.805736
L 444.217269 419.409471
L 444.529214 419.382827
L 444.997132 418.647675
L 445.192098 418.623378
L 446.634845 416.767893
L 446.907797 416.511035
L 447.141756 416.352535
L 447.80464 415.551678
L 448.66249 414.71431
L 448.935442 414.636617
L 449.442353 414.073985
L 449.637319 414.111509
L 450.183224 413.770842
L 450.339196 413.702347
L 450.690135 413.404593
L 451.00208 413.48966
L 451.353019 413.298
L 451.74295 413.462614
L 452.093889 413.402821
L 453.224691 413.961685
L 453.575629 414.292173
L 453.809588 414.417792
L 454.355493 415.015431
L 454.550458 415.270916
L 454.901397 415.743532
L 455.135356 415.991486
L 455.603274 416.740548
L 455.79824 416.991465
L 456.305151 417.911786
L 456.500117 418.114907
L 458.059844 421.083829
L 458.371789 421.695189
L 458.761721 422.341768
L 459.034673 422.80413
L 459.463598 423.514034
L 459.775543 424.12086
L 460.048495 424.474568
L 460.321447 424.706864
L 461.023325 425.65555
L 461.647215 426.315755
L 461.881174 426.41152
L 462.232113 426.395409
L 462.856003 426.83412
L 463.245935 426.697675
L 463.596874 426.712525
L 464.142778 426.444814
L 464.376737 426.2799
L 464.727676 426.06709
L 464.922641 425.920303
L 465.429553 425.259316
L 465.624518 425.138555
L 467.535184 422.050481
L 469.133904 418.982311
L 469.406856 418.676726
L 470.147726 417.293714
L 470.537658 416.687631
L 470.732624 416.448255
L 471.239535 415.580265
L 471.434501 415.489252
L 472.40933 414.32696
L 472.721275 414.003397
L 472.994227 413.737736
L 473.384159 413.729349
L 473.774091 413.374916
L 474.164022 413.364891
L 474.436975 413.41823
L 474.63194 413.388918
L 474.982879 413.188004
L 475.411804 413.426372
L 475.645763 413.357545
L 475.879722 413.673475
L 476.113681 413.825146
L 476.620592 413.762946
L 476.932537 414.172553
L 477.166496 414.363311
L 477.517435 414.420701
L 477.94636 414.825036
L 478.180319 414.878527
L 478.68723 415.340744
L 478.882196 415.459213
L 479.272128 415.85994
L 479.54508 415.938374
L 479.974005 416.303081
L 480.207964 416.416825
L 480.636888 416.830995
L 480.909841 416.861372
L 481.533731 417.267142
L 481.962656 417.497457
L 482.352588 417.751352
L 482.74252 417.695802
L 483.132451 418.106534
L 483.522383 417.929499
L 483.951308 418.249033
L 484.302246 418.256572
L 485.238082 418.467436
L 485.511035 418.441224
L 486.290898 418.698995
L 486.56385 418.717183
L 486.992775 419.047028
L 487.343713 418.859175
L 487.850625 419.312864
L 488.084584 419.317916
L 488.825454 419.872088
L 489.02042 419.903466
L 489.254379 419.936829
L 489.76129 420.410718
L 489.956256 420.40392
L 491.165044 421.450714
L 491.321017 421.623849
L 491.749942 422.216804
L 492.022894 422.345417
L 492.84175 423.138183
L 493.036716 423.256155
L 493.543627 423.908487
L 493.738593 423.900228
L 493.933559 424.28558
L 494.167518 424.577099
L 494.479463 424.583453
L 494.869395 425.052612
L 495.103354 425.018739
L 495.610265 425.405178
L 495.766238 425.485771
L 496.117176 425.823048
L 496.429122 425.670991
L 496.78006 426.056597
L 496.819053 426.019971
L 497.092006 425.800439
L 497.559924 426.122839
L 497.910862 425.905693
L 498.37878 425.906572
L 498.612739 425.949061
L 499.002671 425.633583
L 499.23663 425.761412
L 499.392603 425.488226
L 499.626562 425.126212
L 500.016493 425.189831
L 500.328439 424.816463
L 500.562398 424.84137
L 500.952329 424.180965
L 501.030316 424.268555
L 501.225282 424.393058
L 501.381254 424.019488
L 501.615213 423.528525
L 501.810179 423.696005
L 501.927159 423.672608
L 502.512056 422.952201
L 502.668029 422.798637
L 503.018967 422.439869
L 503.17494 422.266792
L 503.525879 421.738621
L 503.798831 421.858668
L 503.993797 421.380548
L 504.188762 421.070453
L 504.500708 421.138722
L 504.890639 420.540173
L 504.929633 420.567605
L 505.124598 420.5936
L 505.51453 420.057302
L 505.553523 420.094026
L 505.748489 420.207668
L 505.904462 419.897239
L 506.138421 419.489395
L 506.333387 419.694438
L 506.489359 419.68718
L 506.879291 419.323324
L 507.074257 419.291969
L 507.386202 418.96783
L 507.425195 419.002809
L 507.698148 419.252708
L 507.893113 418.835377
L 508.049086 418.644411
L 508.088079 418.669731
L 508.400025 419.021033
L 508.439018 418.978556
L 508.750963 418.643882
L 509.101902 418.873306
L 509.374854 418.668882
L 509.725792 418.833846
L 509.998745 418.662364
L 510.388676 418.931891
L 510.622635 418.781154
L 511.012567 419.014457
L 511.246526 418.824677
L 511.402499 419.095846
L 511.597464 419.360206
L 511.753437 419.160414
L 511.948403 419.027093
L 512.338335 419.479458
L 512.377328 419.437913
L 512.611287 419.311814
L 513.001219 419.651194
L 513.235178 419.542725
L 513.664102 419.936048
L 513.703096 419.892484
L 513.937055 419.744961
L 514.755911 420.228071
L 515.10685 420.199086
L 515.457788 420.595027
L 515.496781 420.563545
L 515.808727 420.318787
L 516.237652 420.673574
L 516.510604 420.557246
L 516.861542 420.657071
L 517.095501 420.67428
L 517.407447 420.81219
L 517.758385 420.629598
L 518.07033 420.794633
L 518.460262 420.60392
L 518.733214 420.653854
L 519.084153 420.451375
L 519.396098 420.528149
L 519.942003 420.182391
L 520.292941 420.04958
L 521.150791 419.510082
L 521.540723 419.225615
L 521.774682 419.114175
L 522.203606 418.587222
L 522.437565 418.604239
L 522.632531 418.192808
L 522.86649 417.824497
L 523.256422 417.734714
L 523.958299 416.735267
L 524.426217 416.285853
L 524.738162 415.832261
L 524.972121 415.818373
L 525.167087 415.369162
L 525.440039 414.906112
L 525.712992 414.833132
L 526.219903 414.193101
L 526.375875 414.076254
L 526.92178 413.387722
L 527.428691 412.914255
L 528.013589 412.40583
L 528.169561 412.3809
L 528.559493 411.830903
L 528.637479 411.911947
L 528.832445 412.056576
L 528.988418 411.760709
L 529.222377 411.378378
L 529.378349 411.615467
L 529.534322 411.780224
L 529.573315 411.754772
L 529.924254 411.223389
L 530.00224 411.304762
L 530.275192 411.598539
L 530.74311 411.463039
L 531.522974 411.849524
L 531.756933 411.728309
L 531.912905 412.060236
L 532.185858 412.56588
L 532.536796 412.488738
L 533.0827 413.30915
L 533.355653 413.621682
L 533.862564 414.569958
L 534.096523 414.791971
L 534.252496 414.890956
L 534.447461 415.429909
L 534.720414 416.108478
L 535.032359 416.239982
L 535.578263 417.493975
L 535.695243 417.581333
L 535.890209 418.202283
L 536.163161 418.965103
L 536.514099 419.332189
L 537.25497 421.047644
L 537.683894 421.971382
L 538.580737 423.822696
L 538.931676 424.23129
L 539.360601 425.128649
L 539.59456 425.294414
L 540.257444 426.297739
L 540.491403 426.601325
L 540.998314 427.337358
L 541.700191 427.842443
L 541.973143 428.004474
L 542.324081 428.032664
L 542.792 428.322524
L 543.142938 428.191849
L 543.493877 428.268839
L 543.844815 428.097051
L 544.117767 428.166408
L 544.663672 427.787065
L 544.819644 427.781856
L 545.01461 427.427434
L 545.248569 427.147634
L 545.599508 427.240399
L 546.340378 426.319046
L 547.47118 424.786883
L 547.666146 424.571284
L 547.939098 424.503617
L 548.523995 423.694027
L 548.679968 423.590443
L 549.225872 422.734226
L 549.420838 422.525116
L 549.771777 422.083284
L 549.966743 421.913723
L 550.395667 421.27715
L 550.629626 421.324484
L 550.824592 420.899101
L 551.058551 420.511122
L 551.40949 420.371004
L 551.721435 420.035926
L 551.994387 419.965923
L 552.462305 419.40153
L 552.735258 419.437856
L 553.00821 419.085093
L 553.281162 418.829771
L 553.476128 418.988263
L 553.671094 419.103564
L 553.827066 418.821336
L 554.100018 418.293357
L 554.216998 418.473877
L 554.450957 418.886735
L 554.567936 418.704399
L 554.840889 418.116379
L 554.879882 418.137687
L 555.23082 418.604202
L 555.269814 418.561081
L 555.581759 418.207112
L 555.971691 418.348941
L 556.20565 418.192763
L 556.439609 418.45409
L 556.634574 418.482599
L 557.024506 418.259559
L 557.68739 418.512765
L 557.999335 418.492181
L 558.42826 418.732001
L 558.701212 418.62494
L 559.208124 418.859284
L 559.403089 418.915185
L 559.754028 419.10132
L 560.02698 419.048425
L 560.533891 419.307922
L 560.76785 419.415291
L 561.001809 419.507597
L 561.313755 419.503657
L 561.703686 419.850914
L 562.054625 419.618133
L 562.561536 420.188119
L 562.600529 420.14917
L 562.912475 419.921238
L 563.10744 420.125416
L 563.419386 420.477365
L 563.614352 420.369131
L 563.848311 420.31739
L 564.394215 420.620683
L 564.70616 420.591227
L 565.135085 420.892395
L 565.408037 420.976478
L 565.797969 420.822369
L 566.226894 421.171703
L 566.577832 421.062084
L 566.967764 421.257178
L 567.27971 421.252767
L 567.630648 421.341963
L 567.981587 421.301681
L 568.449505 421.482216
L 568.839436 421.376863
L 569.346347 421.57597
L 569.658293 421.410243
L 570.204197 421.558652
L 570.477149 421.510324
L 571.257013 421.64366
L 571.95889 421.625419
L 572.192849 421.646185
L 572.69976 421.558993
L 573.323651 421.619675
L 573.596603 421.529575
L 574.064521 421.74375
L 574.376466 421.50782
L 574.610425 421.802518
L 574.805391 421.91695
L 575.351295 421.771579
L 575.975186 422.070255
L 576.365118 422.033372
L 576.872029 422.369095
L 577.144981 422.434311
L 578.11981 422.951953
L 578.353769 423.195211
L 578.704708 423.52243
L 578.97766 423.69244
L 579.406585 424.050281
L 579.601551 424.288289
L 579.952489 424.711768
L 580.186448 424.764782
L 580.381414 425.185883
L 580.654366 425.664588
L 581.005305 425.826193
L 581.980134 427.191148
L 582.1751 427.483751
L 582.604025 428.334511
L 582.837984 428.460156
L 584.787642 431.400599
L 585.528513 432.514063
L 585.762472 432.76852
L 586.074417 432.844094
L 586.464349 433.38732
L 586.737301 433.266631
L 587.166226 433.781941
L 587.205219 433.739053
L 587.478171 433.533799
L 587.868103 433.703172
L 588.336021 433.340076
L 588.647966 433.211704
L 588.920918 432.79416
L 589.31085 432.186176
L 589.505816 432.080365
L 589.700782 431.520473
L 590.05172 430.548478
L 590.285679 430.238141
L 590.987556 427.813414
L 592.430303 421.39899
L 593.366139 415.881935
L 593.873051 412.557804
L 598.708204 379.290907
L 600.306924 372.838014
L 600.696855 371.994831
L 601.12578 371.44014
L 601.359739 371.138202
L 601.515712 371.276225
L 601.827657 371.584415
L 602.139602 371.538369
L 602.334568 371.994431
L 602.802486 373.179404
L 603.036445 373.751822
L 603.894295 377.52952
L 605.103083 385.482798
L 606.77979 400.092208
L 609.314345 425.2845
L 611.069038 440.938858
L 612.004874 448.336433
L 613.291649 456.107161
L 614.188492 459.54972
L 615.358287 462.35546
L 615.39728 462.335163
L 615.553253 462.380809
L 615.904191 463.060249
L 615.982177 462.987198
L 616.25513 462.696964
L 616.567075 463.040552
L 616.606068 462.991081
L 617.034993 462.402819
L 617.190966 462.370533
L 617.385931 461.861545
L 617.658884 461.320871
L 617.853849 461.145309
L 618.048815 460.475461
L 618.399754 459.396539
L 618.711699 458.495891
L 619.257604 456.336591
L 619.530556 455.333603
L 619.725522 454.882651
L 619.959481 453.353633
L 620.232433 452.067177
L 620.427399 451.700866
L 620.622364 450.426056
L 620.93431 448.488507
L 621.207262 447.481391
L 622.299071 441.134338
L 622.650009 439.131905
L 623.546852 433.951748
L 623.858797 432.089619
L 624.248729 429.938389
L 624.482688 428.806987
L 625.067586 425.395136
L 625.808456 421.316055
L 626.120401 419.962185
L 626.315367 419.353637
L 626.939258 416.528049
L 627.09523 415.900878
L 627.524155 413.799668
L 627.719121 413.387165
L 628.304019 411.39367
L 628.498985 410.718624
L 628.81093 409.698328
L 629.083882 409.238033
L 629.5518 408.032118
L 629.785759 407.643372
L 630.097704 407.193225
L 630.29267 406.991503
L 630.682602 406.278823
L 630.955554 406.488439
L 630.994547 406.434406
L 631.345486 405.660682
L 631.423472 405.733602
L 631.735418 406.073875
L 632.164342 405.81414
L 632.710247 406.204979
L 632.905213 406.387229
L 633.256151 406.260602
L 633.60709 407.006458
L 633.685076 406.950801
L 633.880042 406.844893
L 634.036015 407.21594
L 634.308967 407.767151
L 634.542926 407.711119
L 634.698898 408.140595
L 634.971851 408.77369
L 635.244803 408.643049
L 635.400775 409.131699
L 635.673728 409.909186
L 636.024666 410.046535
L 636.57057 411.182025
L 637.155468 412.010402
L 637.584393 412.895737
L 637.779359 412.991414
L 638.013318 413.56601
L 638.247277 413.870601
L 638.442243 413.92609
L 638.637208 414.413142
L 638.871167 414.84941
L 639.183113 414.888584
L 639.651031 415.840265
L 639.690024 415.814699
L 639.88499 415.772952
L 640.079956 416.087688
L 640.430894 416.597712
L 640.781833 416.774064
L 641.015792 416.840767
L 641.48371 417.498377
L 641.561696 417.420298
L 641.756662 417.301304
L 641.912635 417.515182
L 642.185587 417.868031
L 642.614512 417.904376
L 642.887464 417.995455
L 643.121423 418.076743
L 643.472361 418.38524
L 643.940279 418.194991
L 644.252225 418.433455
L 644.759136 418.398948
L 645.149068 418.616268
L 645.461013 418.436592
L 645.694972 418.419602
L 646.240876 418.637368
L 646.630808 418.661264
L 647.215706 418.820729
L 647.449665 418.903875
L 647.839596 418.832821
L 648.229528 419.146669
L 648.541473 418.979468
L 649.165364 419.377565
L 649.399323 419.549354
L 649.672275 419.643993
L 649.867241 419.709927
L 650.335159 420.080766
L 650.608111 420.112154
L 651.621934 420.862529
L 651.777906 420.888193
L 652.401797 421.403962
L 652.55777 421.499263
L 653.142667 422.120427
L 653.727565 422.400984
L 654.03951 422.862131
L 654.390449 422.692168
L 654.741387 423.261442
L 654.78038 423.2377
L 655.053333 423.049009
L 655.287292 423.474497
L 655.443264 423.572504
L 655.794203 423.411415
L 656.145141 423.661581
L 656.418093 423.620711
L 656.730039 423.772288
L 657.080977 423.68355
L 657.314936 423.759014
L 657.743861 423.531302
L 657.97782 423.644735
L 658.211779 423.345777
L 658.445738 423.235841
L 658.679697 423.20617
L 660.005465 421.992515
L 660.239424 421.774915
L 660.473383 421.671184
L 660.980294 421.021464
L 661.136267 420.920696
L 661.604185 419.963979
L 661.682171 420.005128
L 661.799151 419.97729
L 661.955123 419.607025
L 662.228076 418.978302
L 662.540021 418.847767
L 663.085925 417.747869
L 663.241898 417.663921
L 663.475857 417.15977
L 663.865789 416.351936
L 664.294714 415.94035
L 664.723638 414.941707
L 664.957597 414.971909
L 665.11357 414.614984
L 665.425515 413.947723
L 665.659474 413.866998
L 666.205379 413.125098
L 666.361351 413.021157
L 666.868263 412.278803
L 667.102222 412.118825
L 667.414167 411.901299
L 667.609133 411.752154
L 667.921078 411.454446
L 668.272017 411.575327
L 668.622955 411.027656
L 668.661948 411.065446
L 669.05188 411.491848
L 669.480805 411.242327
L 669.753757 411.426525
L 670.143689 411.853104
L 670.455634 411.702229
L 670.689593 412.245115
L 670.884559 412.456832
L 671.118518 412.464819
L 671.39147 413.028753
L 671.586436 413.170445
L 671.742409 413.2819
L 672.327306 414.193821
L 672.444286 414.32014
L 673.068177 415.622454
L 673.263142 416.086669
L 673.614081 416.902059
L 673.84804 417.421834
L 674.237972 418.285957
L 674.471931 418.798507
L 674.939849 419.916319
L 675.680719 421.724274
L 676.109644 422.721538
L 676.30461 423.101452
L 676.772528 424.311994
L 676.967493 424.664794
L 677.357425 425.617277
L 677.552391 425.762186
L 677.747357 426.424318
L 678.020309 427.097754
L 678.254268 427.176252
L 678.488227 427.874393
L 678.683193 428.195911
L 678.956145 428.229316
L 679.190104 428.893997
L 679.424063 429.263643
L 679.736008 429.383488
L 680.437885 430.106575
L 680.827817 430.167345
L 681.178756 430.558418
L 681.60768 430.335468
L 681.880633 430.492092
L 682.46553 430.160075
L 682.777476 429.871399
L 683.089421 429.941732
L 683.635325 429.248553
L 683.791298 429.198596
L 684.06425 428.590606
L 684.337202 428.290278
L 684.532168 428.012384
L 684.9221 427.386084
L 685.156059 427.064857
L 685.701963 426.045244
L 685.935922 425.610874
L 686.442833 424.50777
L 686.754779 423.984053
L 687.339676 422.703237
L 687.573635 422.241049
L 688.00256 421.242107
L 688.236519 420.880797
L 688.782424 419.696241
L 688.938396 419.523739
L 689.211348 418.681655
L 689.484301 418.168779
L 689.757253 417.8705
L 690.420137 416.653826
L 691.2 415.41454
L 691.2 415.41454
" clip-path="url(#pc665be0302)" style="fill: none; stroke: #000000; stroke-linecap: square"/>
   </g>
   <g id="patch_9">
    <path d="M 57.6 547.2
L 57.6 295.2
" style="fill: none; stroke: #000000; stroke-width: 0.8; stroke-linejoin: miter; stroke-linecap: square"/>
   </g>
   <g id="patch_10">
    <path d="M 691.2 547.2
L 691.2 295.2
" style="fill: none; stroke: #000000; stroke-width: 0.8; stroke-linejoin: miter; stroke-linecap: square"/>
   </g>
   <g id="patch_11">
    <path d="M 57.6 547.2
L 691.2 547.2
" style="fill: none; stroke: #000000; stroke-width: 0.8; stroke-linejoin: miter; stroke-linecap: square"/>
   </g>
   <g id="patch_12">
    <path d="M 57.6 295.2
L 691.2 295.2
" style="fill: none; stroke: #000000; stroke-width: 0.8; stroke-linejoin: miter; stroke-linecap: square"/>
   </g>
   <g id="text_18">
    <g id="patch_13">
     <path d="M 70.272 318.360878
L 142.844522 318.360878
Q 145.343522 318.360878 145.343522 315.861878
L 145.343522 307.8
Q 145.343522 305.301 142.844522 305.301
L 70.272 305.301
Q 67.773 305.301 67.773 307.8
L 67.773 315.861878
Q 67.773 318.360878 70.272 318.360878
z
" style="fill: #ffffff; opacity: 0.8; stroke: #000000; stroke-linejoin: miter"/>
    </g>
    <!-- AA.S0002.S2.PRE -->
    <g transform="translate(70.272 314.129498) scale(0.0833 -0.0833)">
     <use xlink:href="#DejaVuSans-41"/>
     <use xlink:href="#DejaVuSans-41" transform="translate(71.158203 0)"/>
     <use xlink:href="#DejaVuSans-2e" transform="translate(137.816406 0)"/>
     <use xlink:href="#DejaVuSans-53" transform="translate(169.603516 0)"/>
     <use xlink:href="#DejaVuSans-30" transform="translate(233.080078 0)"/>
     <use xlink:href="#DejaVuSans-30" transform="translate(296.703125 0)"/>
     <use xlink:href="#DejaVuSans-30" transform="translate(360.326172 0)"/>
     <use xlink:href="#DejaVuSans-32" transform="translate(423.949219 0)"/>
     <use xlink:href="#DejaVuSans-2e" transform="translate(487.572266 0)"/>
     <use xlink:href="#DejaVuSans-53" transform="translate(519.359375 0)"/>
     <use xlink:href="#DejaVuSans-32" transform="translate(582.835938 0)"/>
     <use xlink:href="#DejaVuSans-2e" transform="translate(646.458984 0)"/>
     <use xlink:href="#DejaVuSans-50" transform="translate(678.246094 0)"/>
     <use xlink:href="#DejaVuSans-52" transform="translate(738.548828 0)"/>
     <use xlink:href="#DejaVuSans-45" transform="translate(808.03125 0)"/>
    </g>
   </g>
  </g>
  <g id="text_19">
   <!-- 1969-12-31T23:59:58.8  -  1970-01-01T00:00:15.049 -->
   <g transform="translate(249.045051 17.129498) scale(0.0833 -0.0833)">
    <defs>
     <path id="DejaVuSans-36" d="M 2113 2584
Q 1688 2584 1439 2293
Q 1191 2003 1191 1497
Q 1191 994 1439 701
Q 1688 409 2113 409
Q 2538 409 2786 701
Q 3034 994 3034 1497
Q 3034 2003 2786 2293
Q 2538 2584 2113 2584
z
M 3366 4563
L 3366 3988
Q 3128 4100 2886 4159
Q 2644 4219 2406 4219
Q 1781 4219 1451 3797
Q 1122 3375 1075 2522
Q 1259 2794 1537 2939
Q 1816 3084 2150 3084
Q 2853 3084 3261 2657
Q 3669 2231 3669 1497
Q 3669 778 3244 343
Q 2819 -91 2113 -91
Q 1303 -91 875 529
Q 447 1150 447 2328
Q 447 3434 972 4092
Q 1497 4750 2381 4750
Q 2619 4750 2861 4703
Q 3103 4656 3366 4563
z
" transform="scale(0.015625)"/>
     <path id="DejaVuSans-38" d="M 2034 2216
Q 1584 2216 1326 1975
Q 1069 1734 1069 1313
Q 1069 891 1326 650
Q 1584 409 2034 409
Q 2484 409 2743 651
Q 3003 894 3003 1313
Q 3003 1734 2745 1975
Q 2488 2216 2034 2216
z
M 1403 2484
Q 997 2584 770 2862
Q 544 3141 544 3541
Q 544 4100 942 4425
Q 1341 4750 2034 4750
Q 2731 4750 3128 4425
Q 3525 4100 3525 3541
Q 3525 3141 3298 2862
Q 3072 2584 2669 2484
Q 3125 2378 3379 2068
Q 3634 1759 3634 1313
Q 3634 634 3220 271
Q 2806 -91 2034 -91
Q 1263 -91 848 271
Q 434 634 434 1313
Q 434 1759 690 2068
Q 947 2378 1403 2484
z
M 1172 3481
Q 1172 3119 1398 2916
Q 1625 2713 2034 2713
Q 2441 2713 2670 2916
Q 2900 3119 2900 3481
Q 2900 3844 2670 4047
Q 2441 4250 2034 4250
Q 1625 4250 1398 4047
Q 1172 3844 1172 3481
z
" transform="scale(0.015625)"/>
     <path id="DejaVuSans-20" transform="scale(0.015625)"/>
     <path id="DejaVuSans-34" d="M 2419 4116
L 825 1625
L 2419 1625
L 2419 4116
z
M 2253 4666
L 3047 4666
L 3047 1625
L 3713 1625
L 3713 1100
L 3047 1100
L 3047 0
L 2419 0
L 2419 1100
L 313 1100
L 313 1709
L 2253 4666
z
" transform="scale(0.015625)"/>
    </defs>
    <use xlink:href="#DejaVuSans-31"/>
    <use xlink:href="#DejaVuSans-39" transform="translate(63.623047 0)"/>
    <use xlink:href="#DejaVuSans-36" transform="translate(127.246094 0)"/>
    <use xlink:href="#DejaVuSans-39" transform="translate(190.869141 0)"/>
    <use xlink:href="#DejaVuSans-2d" transform="translate(254.492188 0)"/>
    <use xlink:href="#DejaVuSans-31" transform="translate(290.576172 0)"/>
    <use xlink:href="#DejaVuSans-32" transform="translate(354.199219 0)"/>
    <use xlink:href="#DejaVuSans-2d" transform="translate(417.822266 0)"/>
    <use xlink:href="#DejaVuSans-33" transform="translate(453.90625 0)"/>
    <use xlink:href="#DejaVuSans-31" transform="translate(517.529297 0)"/>
    <use xlink:href="#DejaVuSans-54" transform="translate(581.152344 0)"/>
    <use xlink:href="#DejaVuSans-32" transform="translate(642.236328 0)"/>
    <use xlink:href="#DejaVuSans-33" transform="translate(705.859375 0)"/>
    <use xlink:href="#DejaVuSans-3a" transform="translate(769.482422 0)"/>
    <use xlink:href="#DejaVuSans-35" transform="translate(803.173828 0)"/>
    <use xlink:href="#DejaVuSans-39" transform="translate(866.796875 0)"/>
    <use xlink:href="#DejaVuSans-3a" transform="translate(930.419922 0)"/>
    <use xlink:href="#DejaVuSans-35" transform="translate(964.111328 0)"/>
    <use xlink:href="#DejaVuSans-38" transform="translate(1027.734375 0)"/>
    <use xlink:href="#DejaVuSans-2e" transform="translate(1091.357422 0)"/>
    <use xlink:href="#DejaVuSans-38" transform="translate(1123.144531 0)"/>
    <use xlink:href="#DejaVuSans-20" transform="translate(1186.767578 0)"/>
    <use xlink:href="#DejaVuSans-20" transform="translate(1218.554688 0)"/>
    <use xlink:href="#DejaVuSans-2d" transform="translate(1250.341797 0)"/>
    <use xlink:href="#DejaVuSans-20" transform="translate(1286.425781 0)"/>
    <use xlink:href="#DejaVuSans-20" transform="translate(1318.212891 0)"/>
    <use xlink:href="#DejaVuSans-31" transform="translate(1350 0)"/>
    <use xlink:href="#DejaVuSans-39" transform="translate(1413.623047 0)"/>
    <use xlink:href="#DejaVuSans-37" transform="translate(1477.246094 0)"/>
    <use xlink:href="#DejaVuSans-30" transform="translate(1540.869141 0)"/>
    <use xlink:href="#DejaVuSans-2d" transform="translate(1604.492188 0)"/>
    <use xlink:href="#DejaVuSans-30" transform="translate(1640.576172 0)"/>
    <use xlink:href="#DejaVuSans-31" transform="translate(1704.199219 0)"/>
    <use xlink:href="#DejaVuSans-2d" transform="translate(1767.822266 0)"/>
    <use xlink:href="#DejaVuSans-30" transform="translate(1803.90625 0)"/>
    <use xlink:href="#DejaVuSans-31" transform="translate(1867.529297 0)"/>
    <use xlink:href="#DejaVuSans-54" transform="translate(1931.152344 0)"/>
    <use xlink:href="#DejaVuSans-30" transform="translate(1992.236328 0)"/>
    <use xlink:href="#DejaVuSans-30" transform="translate(2055.859375 0)"/>
    <use xlink:href="#DejaVuSans-3a" transform="translate(2119.482422 0)"/>
    <use xlink:href="#DejaVuSans-30" transform="translate(2153.173828 0)"/>
    <use xlink:href="#DejaVuSans-30" transform="translate(2216.796875 0)"/>
    <use xlink:href="#DejaVuSans-3a" transform="translate(2280.419922 0)"/>
    <use xlink:href="#DejaVuSans-31" transform="translate(2314.111328 0)"/>
    <use xlink:href="#DejaVuSans-35" transform="translate(2377.734375 0)"/>
    <use xlink:href="#DejaVuSans-2e" transform="translate(2441.357422 0)"/>
    <use xlink:href="#DejaVuSans-30" transform="translate(2473.144531 0)"/>
    <use xlink:href="#DejaVuSans-34" transform="translate(2536.767578 0)"/>
    <use xlink:href="#DejaVuSans-39" transform="translate(2600.390625 0)"/>
   </g>
  </g>
 </g>
 <defs>
  <clipPath id="p6117c44593">
   <rect x="57.6" y="43.2" width="633.6" height="252"/>
  </clipPath>
  <clipPath id="pc665be0302">
   <rect x="57.6" y="295.2" width="633.6" height="252"/>
  </clipPath>
 </defs>
</svg>
